<svg width="146" height="24" viewBox="0 0 146 24" fill="none" xmlns="http://www.w3.org/2000/svg">
<g id="fanfanfan">
<path d="M5.8244 2.99597C6.20843 2.67383 6.72046 2.48054 7.3605 2.48054C8.06455 2.48054 8.60859 2.73825 8.99262 3.25369C9.37664 3.76913 9.56866 4.51007 9.56866 5.44429C10.7207 5.41208 11.6168 5.15436 12.2568 4.67114C12.8969 4.18792 13.2169 3.54362 13.2169 2.70604C13.2169 1.90067 12.8009 1.25637 12.0328 0.74094C11.2648 0.257717 10.2087 0 8.92861 0C6.97648 0 5.40837 0.579866 4.22429 1.7396C3.00821 2.89933 2.30416 4.54228 2.11214 6.60403H0.160011V8.21476H2.04814V19.651C2.04814 20.4564 1.85613 21.1651 1.53611 21.7772C1.21608 22.4215 0.704048 23.0013 0 23.5168H11.0408C10.0167 23.0013 9.24863 22.4215 8.8006 21.7772C8.35257 21.1329 8.12856 20.3597 8.12856 19.4255V8.21476H10.3047V6.60403H8.12856C7.20049 6.60403 6.49644 6.41074 5.98441 6.02416C5.47237 5.63758 5.24836 5.08993 5.24836 4.34899C5.24836 3.80134 5.44037 3.35033 5.8244 2.99597Z" fill="black"/>
<path d="M29.3795 20.553C29.1235 20.7463 28.7395 20.843 28.2914 20.843C27.3954 20.843 26.9793 20.1664 26.9793 18.749V12.4671C26.9793 10.3087 26.3713 8.69799 25.1552 7.66711C23.9391 6.63624 22.115 6.1208 19.6828 6.1208C18.3068 6.1208 17.0907 6.34631 16.0026 6.73289C14.9145 7.15168 14.0505 7.69933 13.4424 8.40805C12.8024 9.11678 12.5144 9.92215 12.5144 10.7919C12.5144 11.694 12.7704 12.4027 13.2824 12.9503C13.7944 13.5302 14.4665 13.7879 15.3625 13.7879C16.0666 13.7879 16.7066 13.5946 17.2507 13.2081C17.7947 12.8215 18.1467 12.3705 18.2748 11.8872C17.9547 11.404 17.6987 10.9852 17.5707 10.6309C17.4107 10.2765 17.3467 9.85772 17.3467 9.40671C17.3467 8.89127 17.4747 8.44027 17.7947 8.11812C18.1147 7.79597 18.5308 7.6349 19.0748 7.6349C20.2909 7.6349 20.8989 8.5047 20.8989 10.2443V13.6913L18.2107 14.3034C16.0986 14.7866 14.5625 15.4953 13.5704 16.4295C12.5784 17.396 12.0983 18.5879 12.0983 20.0054C12.0983 21.1651 12.5144 22.0993 13.3464 22.8725C14.1785 23.6456 15.2345 24 16.5466 24C17.5067 24 18.4028 23.7745 19.2348 23.3235C20.0349 22.8725 20.6749 22.196 21.1549 21.2617C21.443 22.196 21.955 22.8725 22.6911 23.3235C23.3951 23.7745 24.2592 24 25.2512 24C26.3073 24 27.2034 23.7101 27.9714 23.0658C28.7395 22.4215 29.1875 21.5839 29.3795 20.553ZM20.9309 20.2631C20.5789 20.5852 20.1949 20.7141 19.7789 20.7141C19.2028 20.7141 18.7548 20.5208 18.4348 20.0698C18.1147 19.651 17.9547 19.0711 17.9547 18.298C17.9547 17.4282 18.1467 16.7517 18.5948 16.2685C19.0428 15.8174 19.6508 15.4631 20.4829 15.2376L20.8989 15.1409V19.4577C20.8989 19.8443 20.8989 20.102 20.9309 20.2631Z" fill="black"/>
<path d="M40.2213 22.0349C40.0612 22.5826 39.8052 23.0658 39.4212 23.5168H47.8058C47.3577 23.0658 47.0377 22.5826 46.8457 22.0027C46.6537 21.455 46.5577 20.7463 46.5577 19.9087V11.3396C46.5577 9.69664 46.1097 8.40805 45.2456 7.50604C44.3815 6.60403 43.1655 6.1208 41.5973 6.1208C40.6053 6.1208 39.6772 6.37852 38.8452 6.86174C37.9811 7.37718 37.3411 7.98926 36.957 8.76241V6.1208L29.5645 9.14899C30.1086 9.53557 30.4926 10.0188 30.7166 10.5664C30.9086 11.1141 31.0366 11.9517 31.0366 13.047V19.9087C31.0366 20.8107 30.9086 21.5195 30.7166 22.0349C30.4926 22.5826 30.1086 23.0658 29.5645 23.5168H38.1731C37.7251 23.0013 37.4371 22.5181 37.3091 22.0349C37.181 21.5517 37.117 20.843 37.117 19.9087V9.92215C37.5651 9.53557 38.0771 9.31007 38.7171 9.31007C39.8692 9.31007 40.4773 10.051 40.4773 11.5329V19.9087C40.4773 20.7785 40.3813 21.4872 40.2213 22.0349Z" fill="black"/>
<path d="M54.9215 2.99597C55.3055 2.67383 55.8176 2.48054 56.4576 2.48054C57.1617 2.48054 57.7057 2.73825 58.0897 3.25369C58.4738 3.76913 58.6658 4.51007 58.6658 5.44429C59.8178 5.41208 60.7139 5.15436 61.3539 4.67114C61.994 4.18792 62.314 3.54362 62.314 2.70604C62.314 1.90067 61.898 1.25637 61.1299 0.74094C60.3619 0.257717 59.3058 0 58.0257 0C56.0736 0 54.5055 0.579866 53.3214 1.7396C52.1053 2.89933 51.4013 4.54228 51.2093 6.60403H49.2571V8.21476H51.1452V19.651C51.1452 20.4564 50.9532 21.1651 50.6332 21.7772C50.3132 22.4215 49.8012 23.0013 49.0971 23.5168H60.1379C59.1138 23.0013 58.3457 22.4215 57.8977 21.7772C57.4497 21.1329 57.2257 20.3597 57.2257 19.4255V8.21476H59.4018V6.60403H57.2257C56.2976 6.60403 55.5936 6.41074 55.0815 6.02416C54.5695 5.63758 54.3455 5.08993 54.3455 4.34899C54.3455 3.80134 54.5375 3.35033 54.9215 2.99597Z" fill="black"/>
<path d="M78.4766 20.553C78.2206 20.7463 77.8366 20.843 77.3885 20.843C76.4925 20.843 76.0765 20.1664 76.0765 18.749V12.4671C76.0765 10.3087 75.4684 8.69799 74.2523 7.66711C73.0362 6.63624 71.2121 6.1208 68.78 6.1208C67.4039 6.1208 66.1878 6.34631 65.0997 6.73289C64.0116 7.15168 63.1476 7.69933 62.5395 8.40805C61.8995 9.11678 61.6115 9.92215 61.6115 10.7919C61.6115 11.694 61.8675 12.4027 62.3795 12.9503C62.8916 13.5302 63.5636 13.7879 64.4597 13.7879C65.1637 13.7879 65.8038 13.5946 66.3478 13.2081C66.8918 12.8215 67.2439 12.3705 67.3719 11.8872C67.0518 11.404 66.7958 10.9852 66.6678 10.6309C66.5078 10.2765 66.4438 9.85772 66.4438 9.40671C66.4438 8.89127 66.5718 8.44027 66.8918 8.11812C67.2119 7.79597 67.6279 7.6349 68.1719 7.6349C69.388 7.6349 69.996 8.5047 69.996 10.2443V13.6913L67.3079 14.3034C65.1957 14.7866 63.6596 15.4953 62.6675 16.4295C61.6755 17.396 61.1954 18.5879 61.1954 20.0054C61.1954 21.1651 61.6115 22.0993 62.4435 22.8725C63.2756 23.6456 64.3316 24 65.6437 24C66.6038 24 67.4999 23.7745 68.3319 23.3235C69.132 22.8725 69.772 22.196 70.2521 21.2617C70.5401 22.196 71.0521 22.8725 71.7882 23.3235C72.4922 23.7745 73.3563 24 74.3483 24C75.4044 24 76.3005 23.7101 77.0685 23.0658C77.8366 22.4215 78.2846 21.5839 78.4766 20.553ZM70.028 20.2631C69.676 20.5852 69.292 20.7141 68.876 20.7141C68.2999 20.7141 67.8519 20.5208 67.5319 20.0698C67.2119 19.651 67.0518 19.0711 67.0518 18.298C67.0518 17.4282 67.2439 16.7517 67.6919 16.2685C68.1399 15.8174 68.748 15.4631 69.58 15.2376L69.996 15.1409V19.4577C69.996 19.8443 69.996 20.102 70.028 20.2631Z" fill="black"/>
<path d="M89.3184 22.0349C89.1583 22.5826 88.9023 23.0658 88.5183 23.5168H96.9029C96.4549 23.0658 96.1348 22.5826 95.9428 22.0027C95.7508 21.455 95.6548 20.7463 95.6548 19.9087V11.3396C95.6548 9.69664 95.2068 8.40805 94.3427 7.50604C93.4786 6.60403 92.2626 6.1208 90.6945 6.1208C89.7024 6.1208 88.7743 6.37852 87.9423 6.86174C87.0782 7.37718 86.4382 7.98926 86.0541 8.76241V6.1208L78.6616 9.14899C79.2057 9.53557 79.5897 10.0188 79.8137 10.5664C80.0057 11.1141 80.1337 11.9517 80.1337 13.047V19.9087C80.1337 20.8107 80.0057 21.5195 79.8137 22.0349C79.5897 22.5826 79.2057 23.0658 78.6616 23.5168H87.2702C86.8222 23.0013 86.5342 22.5181 86.4062 22.0349C86.2782 21.5517 86.2141 20.843 86.2141 19.9087V9.92215C86.6622 9.53557 87.1742 9.31007 87.8143 9.31007C88.9663 9.31007 89.5744 10.051 89.5744 11.5329V19.9087C89.5744 20.7785 89.4784 21.4872 89.3184 22.0349Z" fill="black"/>
<path d="M104.019 2.99597C104.403 2.67383 104.915 2.48054 105.555 2.48054C106.259 2.48054 106.803 2.73825 107.187 3.25369C107.571 3.76913 107.763 4.51007 107.763 5.44429C108.915 5.41208 109.811 5.15436 110.451 4.67114C111.091 4.18792 111.411 3.54362 111.411 2.70604C111.411 1.90067 110.995 1.25637 110.227 0.74094C109.459 0.257717 108.403 0 107.123 0C105.171 0 103.603 0.579866 102.419 1.7396C101.202 2.89933 100.498 4.54228 100.306 6.60403H98.3542V8.21476H100.242V19.651C100.242 20.4564 100.05 21.1651 99.7303 21.7772C99.4103 22.4215 98.8983 23.0013 98.1942 23.5168H109.235C108.211 23.0013 107.443 22.4215 106.995 21.7772C106.547 21.1329 106.323 20.3597 106.323 19.4255V8.21476H108.499V6.60403H106.323C105.395 6.60403 104.691 6.41074 104.179 6.02416C103.667 5.63758 103.443 5.08993 103.443 4.34899C103.443 3.80134 103.635 3.35033 104.019 2.99597Z" fill="black"/>
<path d="M127.574 20.553C127.318 20.7463 126.934 20.843 126.486 20.843C125.59 20.843 125.174 20.1664 125.174 18.749V12.4671C125.174 10.3087 124.566 8.69799 123.349 7.66711C122.133 6.63624 120.309 6.1208 117.877 6.1208C116.501 6.1208 115.285 6.34631 114.197 6.73289C113.109 7.15168 112.245 7.69933 111.637 8.40805C110.997 9.11678 110.709 9.92215 110.709 10.7919C110.709 11.694 110.965 12.4027 111.477 12.9503C111.989 13.5302 112.661 13.7879 113.557 13.7879C114.261 13.7879 114.901 13.5946 115.445 13.2081C115.989 12.8215 116.341 12.3705 116.469 11.8872C116.149 11.404 115.893 10.9852 115.765 10.6309C115.605 10.2765 115.541 9.85772 115.541 9.40671C115.541 8.89127 115.669 8.44027 115.989 8.11812C116.309 7.79597 116.725 7.6349 117.269 7.6349C118.485 7.6349 119.093 8.5047 119.093 10.2443V13.6913L116.405 14.3034C114.293 14.7866 112.757 15.4953 111.765 16.4295C110.773 17.396 110.293 18.5879 110.293 20.0054C110.293 21.1651 110.709 22.0993 111.541 22.8725C112.373 23.6456 113.429 24 114.741 24C115.701 24 116.597 23.7745 117.429 23.3235C118.229 22.8725 118.869 22.196 119.349 21.2617C119.637 22.196 120.149 22.8725 120.885 23.3235C121.589 23.7745 122.453 24 123.445 24C124.502 24 125.398 23.7101 126.166 23.0658C126.934 22.4215 127.382 21.5839 127.574 20.553ZM119.125 20.2631C118.773 20.5852 118.389 20.7141 117.973 20.7141C117.397 20.7141 116.949 20.5208 116.629 20.0698C116.309 19.651 116.149 19.0711 116.149 18.298C116.149 17.4282 116.341 16.7517 116.789 16.2685C117.237 15.8174 117.845 15.4631 118.677 15.2376L119.093 15.1409V19.4577C119.093 19.8443 119.093 20.102 119.125 20.2631Z" fill="black"/>
<path d="M138.415 22.0349C138.255 22.5826 137.999 23.0658 137.615 23.5168H146C145.552 23.0658 145.232 22.5826 145.04 22.0027C144.848 21.455 144.752 20.7463 144.752 19.9087V11.3396C144.752 9.69664 144.304 8.40805 143.44 7.50604C142.576 6.60403 141.36 6.1208 139.792 6.1208C138.799 6.1208 137.871 6.37852 137.039 6.86174C136.175 7.37718 135.535 7.98926 135.151 8.76241V6.1208L127.759 9.14899C128.303 9.53557 128.687 10.0188 128.911 10.5664C129.103 11.1141 129.231 11.9517 129.231 13.047V19.9087C129.231 20.8107 129.103 21.5195 128.911 22.0349C128.687 22.5826 128.303 23.0658 127.759 23.5168H136.367C135.919 23.0013 135.631 22.5181 135.503 22.0349C135.375 21.5517 135.311 20.843 135.311 19.9087V9.92215C135.759 9.53557 136.271 9.31007 136.911 9.31007C138.063 9.31007 138.671 10.051 138.671 11.5329V19.9087C138.671 20.7785 138.575 21.4872 138.415 22.0349Z" fill="black"/>
</g>
</svg>
