<svg width="146" height="24" fill="none" xmlns="http://www.w3.org/2000/svg"><g id="fanfanfan" fill="#000"><path d="M5.824 2.996c.384-.322.896-.515 1.537-.515.704 0 1.248.257 1.632.773.384.515.576 1.256.576 2.19 1.152-.032 2.048-.29 2.688-.773.64-.483.96-1.127.96-1.965 0-.805-.416-1.45-1.184-1.965C11.265.258 10.209 0 8.929 0c-1.953 0-3.52.58-4.705 1.74-1.216 1.16-1.92 2.802-2.112 4.864H.16v1.61h1.888v11.437c0 .805-.192 1.514-.512 2.126-.32.645-.832 1.224-1.536 1.74h11.04C10.018 23 9.25 22.422 8.8 21.777c-.447-.644-.671-1.417-.671-2.352V8.215h2.176V6.604H8.129c-.929 0-1.633-.193-2.145-.58-.512-.386-.736-.934-.736-1.675 0-.548.192-.999.576-1.353ZM29.38 20.553c-.256.193-.64.29-1.089.29-.896 0-1.312-.677-1.312-2.094v-6.282c0-2.158-.608-3.769-1.824-4.8-1.216-1.03-3.04-1.546-5.472-1.546-1.376 0-2.592.225-3.68.612-1.088.419-1.953.966-2.56 1.675-.64.709-.929 1.514-.929 2.384 0 .902.256 1.61.768 2.158.512.58 1.184.838 2.08.838.705 0 1.345-.193 1.889-.58.544-.386.896-.838 1.024-1.32-.32-.484-.576-.903-.704-1.257-.16-.354-.224-.773-.224-1.224 0-.516.128-.967.448-1.289.32-.322.736-.483 1.28-.483 1.216 0 1.824.87 1.824 2.61v3.446l-2.688.612c-2.112.484-3.648 1.192-4.64 2.127-.993.966-1.473 2.158-1.473 3.575 0 1.16.416 2.094 1.248 2.867.832.774 1.889 1.128 3.2 1.128.96 0 1.857-.226 2.689-.677.8-.45 1.44-1.127 1.92-2.061.288.934.8 1.61 1.536 2.061.704.451 1.568.677 2.56.677 1.056 0 1.952-.29 2.72-.934.768-.644 1.216-1.482 1.409-2.513Zm-8.45-.29a1.637 1.637 0 0 1-1.151.451c-.576 0-1.024-.193-1.344-.644-.32-.419-.48-.999-.48-1.772 0-.87.192-1.546.64-2.03.448-.45 1.056-.805 1.888-1.03l.416-.097v4.317c0 .386 0 .644.032.805ZM40.221 22.035a3.936 3.936 0 0 1-.8 1.482h8.385c-.448-.451-.768-.934-.96-1.514-.192-.548-.288-1.257-.288-2.094v-8.57c0-1.642-.448-2.931-1.312-3.833-.864-.902-2.08-1.385-3.649-1.385-.992 0-1.92.258-2.752.74-.864.516-1.504 1.128-1.888 1.901V6.121l-7.393 3.028c.545.387.929.87 1.153 1.417.192.548.32 1.386.32 2.481v6.862c0 .902-.128 1.61-.32 2.126-.224.548-.608 1.03-1.152 1.482h8.608c-.448-.516-.736-.999-.864-1.482s-.192-1.192-.192-2.126V9.922c.448-.386.96-.612 1.6-.612 1.152 0 1.76.741 1.76 2.223v8.376c0 .87-.096 1.578-.256 2.126ZM54.922 2.996c.384-.322.896-.515 1.536-.515.704 0 1.248.257 1.632.773.384.515.576 1.256.576 2.19 1.152-.032 2.048-.29 2.688-.773.64-.483.96-1.127.96-1.965 0-.805-.416-1.45-1.184-1.965C60.362.258 59.306 0 58.026 0c-1.952 0-3.52.58-4.705 1.74-1.216 1.16-1.92 2.802-2.112 4.864h-1.952v1.61h1.888v11.437c0 .805-.192 1.514-.512 2.126-.32.645-.832 1.224-1.536 1.74h11.04c-1.023-.516-1.791-1.095-2.24-1.74-.447-.644-.671-1.417-.671-2.352V8.215h2.176V6.604h-2.176c-.928 0-1.632-.193-2.145-.58-.512-.386-.736-.934-.736-1.675 0-.548.193-.999.577-1.353ZM78.477 20.553c-.256.193-.64.29-1.089.29-.895 0-1.312-.677-1.312-2.094v-6.282c0-2.158-.608-3.769-1.824-4.8-1.216-1.03-3.04-1.546-5.472-1.546-1.376 0-2.592.225-3.68.612-1.088.419-1.952.966-2.56 1.675-.64.709-.928 1.514-.928 2.384 0 .902.255 1.61.767 2.158.513.58 1.185.838 2.08.838.705 0 1.345-.193 1.889-.58.544-.386.896-.838 1.024-1.32-.32-.484-.576-.903-.704-1.257-.16-.354-.224-.773-.224-1.224 0-.516.128-.967.448-1.289.32-.322.736-.483 1.28-.483 1.216 0 1.824.87 1.824 2.61v3.446l-2.688.612c-2.112.484-3.648 1.192-4.64 2.127-.992.966-1.473 2.158-1.473 3.575 0 1.16.416 2.094 1.248 2.867.833.774 1.889 1.128 3.2 1.128.96 0 1.857-.226 2.689-.677.8-.45 1.44-1.127 1.92-2.061.288.934.8 1.61 1.536 2.061.704.451 1.568.677 2.56.677 1.056 0 1.953-.29 2.72-.934.769-.644 1.217-1.482 1.409-2.513Zm-8.449-.29a1.637 1.637 0 0 1-1.152.451c-.576 0-1.024-.193-1.344-.644-.32-.419-.48-.999-.48-1.772 0-.87.192-1.546.64-2.03.448-.45 1.056-.805 1.888-1.03l.416-.097v4.317c0 .386 0 .644.032.805ZM89.318 22.035a3.936 3.936 0 0 1-.8 1.482h8.385c-.448-.451-.768-.934-.96-1.514-.192-.548-.288-1.257-.288-2.094v-8.57c0-1.642-.448-2.931-1.312-3.833-.864-.902-2.08-1.385-3.648-1.385-.993 0-1.92.258-2.753.74-.864.516-1.504 1.128-1.888 1.901V6.121l-7.392 3.028c.544.387.928.87 1.152 1.417.192.548.32 1.386.32 2.481v6.862c0 .902-.128 1.61-.32 2.126-.224.548-.608 1.03-1.152 1.482h8.608c-.448-.516-.736-.999-.864-1.482s-.192-1.192-.192-2.126V9.922c.448-.386.96-.612 1.6-.612 1.152 0 1.76.741 1.76 2.223v8.376c0 .87-.096 1.578-.256 2.126ZM104.019 2.996c.384-.322.896-.515 1.536-.515.704 0 1.248.257 1.632.773.384.515.576 1.256.576 2.19 1.152-.032 2.048-.29 2.688-.773.64-.483.96-1.127.96-1.965 0-.805-.416-1.45-1.184-1.965-.768-.483-1.824-.741-3.104-.741-1.952 0-3.52.58-4.704 1.74-1.217 1.16-1.921 2.802-2.113 4.864h-1.952v1.61h1.888v11.437c0 .805-.192 1.514-.512 2.126-.32.645-.832 1.224-1.536 1.74h11.041c-1.024-.516-1.792-1.095-2.24-1.74-.448-.644-.672-1.417-.672-2.352V8.215h2.176V6.604h-2.176c-.928 0-1.632-.193-2.144-.58-.512-.386-.736-.934-.736-1.675 0-.548.192-.999.576-1.353ZM127.574 20.553c-.256.193-.64.29-1.088.29-.896 0-1.312-.677-1.312-2.094v-6.282c0-2.158-.608-3.769-1.825-4.8-1.216-1.03-3.04-1.546-5.472-1.546-1.376 0-2.592.225-3.68.612-1.088.419-1.952.966-2.56 1.675-.64.709-.928 1.514-.928 2.384 0 .902.256 1.61.768 2.158.512.58 1.184.838 2.08.838.704 0 1.344-.193 1.888-.58.544-.386.896-.838 1.024-1.32-.32-.484-.576-.903-.704-1.257-.16-.354-.224-.773-.224-1.224 0-.516.128-.967.448-1.289.32-.322.736-.483 1.28-.483 1.216 0 1.824.87 1.824 2.61v3.446l-2.688.612c-2.112.484-3.648 1.192-4.64 2.127-.992.966-1.472 2.158-1.472 3.575 0 1.16.416 2.094 1.248 2.867.832.774 1.888 1.128 3.2 1.128.96 0 1.856-.226 2.688-.677.8-.45 1.44-1.127 1.92-2.061.288.934.8 1.61 1.536 2.061.704.451 1.568.677 2.56.677 1.057 0 1.953-.29 2.721-.934.768-.644 1.216-1.482 1.408-2.513Zm-8.449-.29a1.637 1.637 0 0 1-1.152.451c-.576 0-1.024-.193-1.344-.644-.32-.419-.48-.999-.48-1.772 0-.87.192-1.546.64-2.03.448-.45 1.056-.805 1.888-1.03l.416-.097v4.317c0 .386 0 .644.032.805ZM138.415 22.035a3.935 3.935 0 0 1-.8 1.482H146c-.448-.451-.768-.934-.96-1.514-.192-.548-.288-1.257-.288-2.094v-8.57c0-1.642-.448-2.931-1.312-3.833-.864-.902-2.08-1.385-3.648-1.385-.993 0-1.921.258-2.753.74-.864.516-1.504 1.128-1.888 1.901V6.121l-7.392 3.028c.544.387.928.87 1.152 1.417.192.548.32 1.386.32 2.481v6.862c0 .902-.128 1.61-.32 2.126-.224.548-.608 1.03-1.152 1.482h8.608c-.448-.516-.736-.999-.864-1.482s-.192-1.192-.192-2.126V9.922c.448-.386.96-.612 1.6-.612 1.152 0 1.76.741 1.76 2.223v8.376c0 .87-.096 1.578-.256 2.126Z"/></g></svg>